<svg xmlns="http://www.w3.org/2000/svg" viewBox="0 0 1200 520" role="img" aria-labelledby="title desc">
  <title id="title">Otherworld Access placeholder</title>
  <desc id="desc">A stylized dark fantasy gateway placeholder for the Otherworld Access page.</desc>
  <defs>
    <linearGradient id="bg" x1="0" y1="0" x2="1" y2="1">
      <stop offset="0" stop-color="#03101d"/>
      <stop offset="0.55" stop-color="#071d31"/>
      <stop offset="1" stop-color="#020710"/>
    </linearGradient>
    <radialGradient id="rift" cx="50%" cy="43%" r="50%">
      <stop offset="0" stop-color="#7eeaff" stop-opacity="0.95"/>
      <stop offset="0.18" stop-color="#ffe28a" stop-opacity="0.58"/>
      <stop offset="0.42" stop-color="#1e8fb4" stop-opacity="0.28"/>
      <stop offset="1" stop-color="#000000" stop-opacity="0"/>
    </radialGradient>
    <filter id="glow" x="-30%" y="-30%" width="160%" height="160%">
      <feGaussianBlur stdDeviation="9" result="blur"/>
      <feMerge><feMergeNode in="blur"/><feMergeNode in="SourceGraphic"/></feMerge>
    </filter>
  </defs>
  <rect width="1200" height="520" fill="url(#bg)"/>
  <path d="M0 380 C170 330 280 402 420 354 C560 306 690 328 815 372 C950 420 1050 358 1200 392 L1200 520 L0 520 Z" fill="#020915" opacity="0.92"/>
  <path d="M110 448 H1090" stroke="#7eeaff" stroke-opacity="0.16"/>
  <path d="M178 420 H1024" stroke="#ffe28a" stroke-opacity="0.13"/>
  <ellipse cx="600" cy="236" rx="330" ry="210" fill="url(#rift)" opacity="0.72"/>
  <g filter="url(#glow)">
    <path d="M438 406 V218 C438 128 506 72 600 72 C694 72 762 128 762 218 V406" fill="none" stroke="#7eeaff" stroke-width="8" stroke-opacity="0.75"/>
    <path d="M476 406 V232 C476 160 526 116 600 116 C674 116 724 160 724 232 V406" fill="none" stroke="#ffe28a" stroke-width="3" stroke-opacity="0.70"/>
    <path d="M520 406 V245 C520 196 552 168 600 168 C648 168 680 196 680 245 V406" fill="none" stroke="#bff7ff" stroke-width="2" stroke-opacity="0.42"/>
  </g>
  <g opacity="0.38">
    <path d="M238 178 H392 M808 178 H962 M182 236 H350 M850 236 H1018 M236 294 H390 M810 294 H964" stroke="#7eeaff" stroke-width="1"/>
    <path d="M280 160 V326 M920 160 V326" stroke="#ffe28a" stroke-opacity="0.55"/>
  </g>
  <g>
    <rect x="48" y="42" width="1104" height="436" fill="none" stroke="#7eeaff" stroke-opacity="0.24"/>
    <path d="M48 42 H250 M950 42 H1152 M48 478 H250 M950 478 H1152" stroke="#ffe28a" stroke-opacity="0.42" stroke-width="3"/>
  </g>
  <text x="600" y="438" fill="#fff2ad" text-anchor="middle" font-family="Cinzel, Georgia, serif" font-size="28" font-weight="700" letter-spacing="5">OTHERWORLD ACCESS</text>
  <text x="600" y="468" fill="#bff7ff" text-anchor="middle" font-family="JetBrains Mono, monospace" font-size="13" letter-spacing="4">PLACEHOLDER MEDIA FRAME</text>
</svg>
